HIERARCHY
ROOT Hips
{
	OFFSET 0.00000 0.00000 0.00000
	CHANNELS 6 Xposition Yposition Zposition Zrotation Yrotation Xrotation 
	JOINT LHipJoint
	{
		OFFSET 0 0 0
		CHANNELS 3 Zrotation Yrotation Xrotation
		JOINT LeftUpLeg
		{
			OFFSET 1.57314 -1.85774 0.63783
			CHANNELS 3 Zrotation Yrotation Xrotation
			JOINT LeftLeg
			{
				OFFSET 2.57982 -7.08799 0.00000
				CHANNELS 3 Zrotation Yrotation Xrotation
				JOINT LeftFoot
				{
					OFFSET 2.63993 -7.25315 0.00000
					CHANNELS 3 Zrotation Yrotation Xrotation
					JOINT LeftToeBase
					{
						OFFSET 0.16864 -0.46332 2.12791
						CHANNELS 3 Zrotation Yrotation Xrotation
						End Site
						{
							OFFSET 0.00000 -0.00000 1.09718
						}
					}
				}
			}
		}
	}
	JOINT RHipJoint
	{
		OFFSET 0 0 0
		CHANNELS 3 Zrotation Yrotation Xrotation
		JOINT RightUpLeg
		{
			OFFSET -1.56006 -1.85774 0.63784
			CHANNELS 3 Zrotation Yrotation Xrotation
			JOINT RightLeg
			{
				OFFSET -2.54246 -6.98536 0.00000
				CHANNELS 3 Zrotation Yrotation Xrotation
				JOINT RightFoot
				{
					OFFSET -2.65791 -7.30256 0.00000
					CHANNELS 3 Zrotation Yrotation Xrotation
					JOINT RightToeBase
					{
						OFFSET -0.18435 -0.50650 2.16316
						CHANNELS 3 Zrotation Yrotation Xrotation
						End Site
						{
							OFFSET -0.00000 -0.00000 1.11780
						}
					}
				}
			}
		}
	}
	JOINT LowerBack
	{
		OFFSET 0 0 0
		CHANNELS 3 Zrotation Yrotation Xrotation
		JOINT Spine
		{
			OFFSET -0.00136 1.92812 -0.29638
			CHANNELS 3 Zrotation Yrotation Xrotation
			JOINT Spine1
			{
				OFFSET -0.00528 1.96223 -0.02928
				CHANNELS 3 Zrotation Yrotation Xrotation
				JOINT Neck
				{
					OFFSET 0 0 0
					CHANNELS 3 Zrotation Yrotation Xrotation
					JOINT Neck1
					{
						OFFSET -0.01015 1.75586 0.07797
						CHANNELS 3 Zrotation Yrotation Xrotation
						JOINT Head
						{
							OFFSET 0.05540 1.72452 0.04558
							CHANNELS 3 Zrotation Yrotation Xrotation
							End Site
							{
								OFFSET 0.02170 1.79958 0.00864
							}
						}
					}
				}
				JOINT LeftShoulder
				{
					OFFSET 0 0 0
					CHANNELS 3 Zrotation Yrotation Xrotation
					JOINT LeftArm
					{
						OFFSET 3.16292 1.29277 -0.65728
						CHANNELS 3 Zrotation Yrotation Xrotation
						JOINT LeftForeArm
						{
							OFFSET 5.52302 -0.00000 -0.00000
							CHANNELS 3 Zrotation Yrotation Xrotation
							JOINT LeftHand
							{
								OFFSET 3.58675 -0.00000 -0.00000
								CHANNELS 3 Zrotation Yrotation Xrotation
								JOINT LeftFingerBase
								{
									OFFSET 0 0 0
									CHANNELS 3 Zrotation Yrotation Xrotation
									JOINT LeftHandIndex1
									{
										OFFSET 0.53641 -0.00000 -0.00000
										CHANNELS 3 Zrotation Yrotation Xrotation
										End Site
										{
											OFFSET 0.43247 -0.00000 -0.00000
										}
									}
								}
								JOINT LThumb
								{
									OFFSET 0 0 0
									CHANNELS 3 Zrotation Yrotation Xrotation
									End Site
									{
										OFFSET 0.43907 -0.00000 0.43907
									}
								}
							}
						}
					}
				}
				JOINT RightShoulder
				{
					OFFSET 0 0 0
					CHANNELS 3 Zrotation Yrotation Xrotation
					JOINT RightArm
					{
						OFFSET -3.08296 1.43376 -0.52927
						CHANNELS 3 Zrotation Yrotation Xrotation
						JOINT RightForeArm
						{
							OFFSET -5.84780 -0.00000 0.00000
							CHANNELS 3 Zrotation Yrotation Xrotation
							JOINT RightHand
							{
								OFFSET -3.62717 -0.00000 -0.00000
								CHANNELS 3 Zrotation Yrotation Xrotation
								JOINT RightFingerBase
								{
									OFFSET 0 0 0
									CHANNELS 3 Zrotation Yrotation Xrotation
									JOINT RightHandIndex1
									{
										OFFSET -0.65052 -0.00000 -0.00000
										CHANNELS 3 Zrotation Yrotation Xrotation
										End Site
										{
											OFFSET -0.52446 -0.00000 -0.00000
										}
									}
								}
								JOINT RThumb
								{
									OFFSET 0 0 0
									CHANNELS 3 Zrotation Yrotation Xrotation
									End Site
									{
										OFFSET -0.53247 -0.00000 0.53247
									}
								}
							}
						}
					}
				}
			}
		}
	}
}
MOTION
Frames: 7
Frame Time: .0083333
0.3891 18.9727 10.4051 9.1642 0.3804 6.1495 0.0000 0.0000 0.0000 -32.7141 5.4852 30.8248 0.3757 3.9367 10.8988 2.6566 16.2247 29.8545 0.8123 -5.7516 -16.0652 0.0000 0.0000 0.0000 3.7753 18.6531 -36.9193 -3.2832 -11.1400 32.7534 0.0759 -8.3897 4.2128 -0.0357 1.2194 -3.3528 -9.1879 -3.6974 16.2425 -1.7849 -6.8173 -0.3667 4.7737 -2.9046 -8.6688 -0.5437 2.7874 -5.6219 -0.1289 3.7207 -10.0003 0.0407 1.8678 -2.1959 0.0000 -0.0000 0.0000 -79.1926 -8.9008 53.7297 139.8725 -48.1453 -101.4658 -0.0000 0.0000 -28.2183 32.7220 5.9860 3.8334 -7.1250 0.0000 -0.0000 5.0940 37.0419 -1.0005 0.0000 -0.0000 0.0000 78.8497 -34.5880 36.6208 -99.2482 59.6743 -68.0004 0.0000 -0.0000 -2.6889 -43.5976 26.4612 -22.9913 7.1250 -0.0000 -0.0000 -7.8861 4.2302 -8.5250
0.3976 18.9636 10.9202 9.0022 0.0406 6.3239 0.0000 0.0000 0.0000 -33.3391 4.8872 28.7389 0.9328 6.1524 17.2274 2.3094 14.5617 27.6925 0.9259 -6.1302 -17.1627 0.0000 0.0000 0.0000 3.6439 19.9934 -35.6215 -2.6537 -10.1121 29.3406 0.3310 -11.5516 1.6811 -0.0143 0.7712 -2.1194 -8.6462 -3.6584 16.5129 -1.8129 -6.7370 -0.8333 4.4816 -2.8345 -9.4155 -0.6860 2.8537 -4.8309 0.0560 3.8254 -10.0422 0.1089 1.9211 -2.3546 -0.0000 -0.0000 0.0000 -79.0473 -7.1639 54.1029 139.5908 -48.3105 -101.2558 -0.0000 0.0000 -27.2930 32.2221 5.3636 3.3717 -7.1250 0.0000 -0.0000 4.6566 36.2790 -1.0012 -0.0000 -0.0000 0.0000 78.9112 -34.8838 36.5493 -99.0439 59.6887 -67.8241 0.0000 -0.0000 -2.4759 -43.6013 26.3900 -22.9425 7.1250 -0.0000 -0.0000 -7.9061 4.1478 -8.5365
0.4067 18.9428 11.4550 8.8301 -0.3403 6.3872 0.0000 0.0000 0.0000 -33.8657 4.4362 26.9767 1.6620 8.1234 23.0896 2.1282 13.6081 26.5040 0.9837 -6.3133 -17.6961 0.0000 0.0000 0.0000 3.7342 21.0447 -34.3190 -2.1697 -9.2109 26.4574 0.6183 -14.3101 -1.1268 -0.0143 0.7720 -2.1216 -8.1895 -3.5926 16.3464 -1.8339 -6.5525 -0.9068 4.1582 -2.7660 -9.4774 -0.4568 2.8184 -4.8004 -0.2164 3.7524 -9.9111 -0.0136 1.8827 -2.3050 0.0000 -0.0000 0.0000 -78.8943 -6.0692 54.1426 138.9291 -48.6917 -100.7602 -0.0000 0.0000 -26.1677 32.2333 4.7953 3.0173 -7.1250 0.0000 -0.0000 4.6533 35.6117 -1.0764 0.0000 -0.0000 0.0000 79.0048 -34.4754 36.4193 -98.5008 59.7252 -67.3551 0.0000 -0.0000 -2.5295 -43.4751 26.7156 -23.0860 7.1250 -0.0000 -0.0000 -7.7530 4.4805 -8.4098
0.4241 18.9094 12.0012 8.5860 -0.5783 6.3395 0.0000 0.0000 0.0000 -34.0280 4.3381 25.2126 2.5494 9.9272 28.7412 2.1172 13.1068 26.3745 0.9370 -6.1658 -17.2661 0.0000 0.0000 0.0000 4.8347 19.9013 -33.2966 -1.8183 -8.4769 24.1722 0.7266 -15.0552 -3.2392 -0.0065 0.5200 -1.4288 -7.6670 -3.5583 15.6127 -1.7854 -6.3006 -0.5384 3.7880 -2.7221 -8.7287 -0.5228 2.7541 -4.8492 -0.4259 3.6521 -10.2201 -0.0702 1.8397 -2.3957 0.0000 0.0000 0.0000 -78.8438 -5.2962 54.5665 138.5535 -48.9039 -100.4775 -0.0000 0.0000 -26.4216 32.6485 4.3638 2.7911 -7.1250 0.0000 -0.0000 4.9880 35.1233 -1.2138 0.0000 0.0000 0.0000 79.0098 -33.4918 36.1716 -98.2437 59.7416 -67.1331 0.0000 -0.0000 -2.7635 -43.1865 26.7635 -22.9123 7.1250 -0.0000 -0.0000 -7.5787 4.4220 -8.2104
0.4409 18.8571 12.5298 8.3039 -1.0328 6.2699 0.0000 0.0000 0.0000 -34.1538 4.4263 23.3346 3.5943 11.6001 34.3314 2.2108 12.5656 26.8760 0.9105 -6.0804 -17.0178 0.0000 0.0000 0.0000 6.0545 19.0117 -32.2977 -1.5872 -7.9474 22.5544 0.8309 -16.1553 -2.9072 -0.0253 1.0275 -2.8244 -7.3222 -3.3820 15.0301 -1.6164 -5.9134 -0.2453 3.6391 -2.5860 -8.1337 -0.8214 2.6902 -4.6349 -0.5491 3.5620 -10.5776 -0.0658 1.8093 -2.5562 0.0000 -0.0000 0.0000 -78.9919 -4.3456 55.4057 138.5234 -48.9208 -100.4548 -0.0000 0.0000 -28.1970 33.6044 5.1329 3.4023 -7.1250 0.0000 -0.0000 5.8159 36.0837 -1.2801 0.0000 -0.0000 0.0000 78.7782 -32.3172 35.9516 -97.5475 59.7837 -66.5316 0.0000 -0.0000 -2.9756 -43.0090 26.5842 -22.6578 7.1250 -0.0000 -0.0000 -7.5239 4.1418 -8.1158
0.4540 18.7918 13.0582 7.7188 -1.5115 6.0866 0.0000 0.0000 0.0000 -33.7929 4.7603 21.5511 4.8123 13.1692 40.0054 2.3519 12.6213 27.7121 0.7058 -5.3694 -14.9653 0.0000 0.0000 0.0000 7.7118 18.2097 -31.1789 -1.4319 -7.5661 21.4038 0.9022 -16.8902 -2.6101 -0.0693 1.6978 -4.6712 -6.7178 -3.2083 14.9748 -1.3547 -5.5537 -0.2892 3.5122 -2.4280 -8.2162 -0.9195 2.6537 -3.9835 -0.8415 3.4863 -10.6534 -0.1524 1.7840 -2.6932 -0.0000 -0.0000 0.0000 -79.3980 -3.0205 53.6431 136.7074 -49.9041 -99.0757 -0.0000 0.0000 -22.9697 30.1539 6.5139 3.7706 -7.1250 0.0000 -0.0000 2.9037 37.4881 -0.5374 -0.0000 -0.0000 0.0000 78.2064 -31.7002 36.2094 -96.8578 59.8215 -65.9354 0.0000 -0.0000 -3.2600 -43.3715 26.5279 -22.8769 7.1250 -0.0000 -0.0000 -7.7420 4.2187 -8.3650
0.4715 18.7216 13.6041 6.9345 -1.4634 5.5722 0.0000 0.0000 0.0000 -32.9685 4.9857 20.1460 6.2072 14.6262 45.8078 2.5301 12.5885 28.7322 0.5681 -4.8271 -13.4159 0.0000 0.0000 0.0000 9.7696 16.7576 -29.5107 -1.3130 -7.2581 20.4824 0.8910 -16.8460 -2.3236 -0.1873 2.7876 -7.6879 -5.6638 -3.2041 15.3491 -1.1023 -5.3679 -0.2808 3.1889 -2.3646 -8.5046 -0.9160 2.5834 -3.8054 -1.1319 3.3726 -10.1192 -0.2404 1.7334 -2.5394 -0.0000 -0.0000 0.0000 -79.6719 -1.1230 54.0270 135.7638 -50.3888 -98.3513 -0.0000 0.0000 -24.0255 32.2271 4.0703 2.5620 -7.1250 0.0000 -0.0000 4.6288 34.7588 -1.1670 -0.0000 -0.0000 0.0000 77.6237 -31.2354 36.5072 -96.7079 59.8293 -65.8059 0.0000 -0.0000 -3.6822 -43.3457 26.3258 -22.7131 7.1250 -0.0000 -0.0000 -7.7783 3.9706 -8.3736
